<svg width="100" height="100" viewBox="0 0 100 100" fill="none" xmlns="http://www.w3.org/2000/svg">
<path d="M75.25 95.8333H82.1667C85.6667 95.8333 88.5417 93.125 88.9583 89.7083L95.8333 21.0417H75V4.16667H66.7917V21.0417H46.0833L47.3333 30.7917C54.4583 32.75 61.125 36.2917 65.125 40.2083C71.125 46.125 75.25 52.25 75.25 62.25V95.8333ZM4.16667 91.6667V87.5H66.7917V91.6667C66.7917 93.9167 64.9167 95.8333 62.5 95.8333H8.33334C6.04167 95.8333 4.16667 93.9167 4.16667 91.6667ZM66.7917 62.5C66.7917 29.1667 4.16667 29.1667 4.16667 62.5H66.7917ZM4.16667 70.8333H66.6667V79.1667H4.16667V70.8333Z" fill="black"/>
</svg>
